<svg width="192" height="40" viewBox="0 0 192 40" fill="none" xmlns="http://www.w3.org/2000/svg">
<path d="M14.6191 39.563C12.2336 39.563 10.0814 39.0446 8.16484 38.003C6.24589 36.9564 4.74296 35.5078 3.65363 33.6522C2.56189 31.799 2.01843 29.7278 2.01843 27.4409C2.01843 25.1541 2.56189 23.0877 3.65363 21.2394C4.74296 19.3862 6.24589 17.9351 8.16484 16.8886C10.0814 15.8421 12.2336 15.3188 14.6191 15.3188C16.9973 15.3188 19.1447 15.8421 21.0636 16.8886C22.9802 17.9351 24.4831 19.3789 25.5749 21.22C26.6642 23.0563 27.2101 25.1299 27.2101 27.4409C27.2101 29.7544 26.6642 31.8305 25.5749 33.6716C24.4831 35.5126 22.9802 36.9564 21.0636 38.003C19.1447 39.0446 16.9973 39.563 14.6191 39.563ZM14.6191 35.7258C16.1773 35.7258 17.5768 35.3746 18.8225 34.6696C20.0729 33.9598 21.054 32.9715 21.7658 31.7045C22.4776 30.4327 22.8335 29.0107 22.8335 27.4409C22.8335 25.8712 22.4776 24.454 21.7658 23.1871C21.054 21.9153 20.0729 20.9269 18.8225 20.2219C17.5768 19.5122 16.1773 19.1561 14.6191 19.1561C13.0536 19.1561 11.6468 19.5122 10.3964 20.2219C9.15077 20.9269 8.17446 21.9153 7.46267 23.1871C6.75088 24.454 6.39498 25.8712 6.39498 27.4409C6.39498 29.0107 6.75088 30.4327 7.46267 31.7045C8.17446 32.9715 9.15077 33.9598 10.3964 34.6696C11.6468 35.3746 13.0536 35.7258 14.6191 35.7258Z" fill="#13728D"/>
<path d="M50.2356 39.563C47.8501 39.563 45.6979 39.0446 43.7814 38.003C41.8624 36.9564 40.3595 35.5078 39.2702 33.6522C38.1784 31.799 37.635 29.7278 37.635 27.4409C37.635 25.1541 38.1784 23.0877 39.2702 21.2394C40.3595 19.3862 41.8624 17.9351 43.7814 16.8886C45.6979 15.8421 47.8501 15.3188 50.2356 15.3188C52.6138 15.3188 54.7612 15.8421 56.6802 16.8886C58.5967 17.9351 60.0997 19.3789 61.1914 21.22C62.2807 23.0563 62.8266 25.1299 62.8266 27.4409C62.8266 29.7544 62.2807 31.8305 61.1914 33.6716C60.0997 35.5126 58.5967 36.9564 56.6802 38.003C54.7612 39.0446 52.6138 39.563 50.2356 39.563ZM50.2356 35.7258C51.7938 35.7258 53.1934 35.3746 54.439 34.6696C55.6895 33.9598 56.6706 32.9715 57.3824 31.7045C58.0942 30.4327 58.4501 29.0107 58.4501 27.4409C58.4501 25.8712 58.0942 24.454 57.3824 23.1871C56.6706 21.9153 55.6895 20.9269 54.439 20.2219C53.1934 19.5122 51.7938 19.1561 50.2356 19.1561C48.6701 19.1561 47.2634 19.5122 46.0129 20.2219C44.7673 20.9269 43.791 21.9153 43.0792 23.1871C42.3674 24.454 42.0115 25.8712 42.0115 27.4409C42.0115 29.0107 42.3674 30.4327 43.0792 31.7045C43.791 32.9715 44.7673 33.9598 46.0129 34.6696C47.2634 35.3746 48.6701 35.7258 50.2356 35.7258Z" fill="#13728D"/>
<mask id="mask0_90_1006" style="mask-type:luminance" maskUnits="userSpaceOnUse" x="2" y="1" width="61" height="33">
<path d="M2 1H62.7884V33.6187H2V1Z" fill="white"/>
</mask>
<g mask="url(#mask0_90_1006)">
<path d="M5.5253 14.0136C7.97328 12.6013 10.8036 11.7897 13.8239 11.7897C22.8656 11.7897 30.2288 19.0184 30.5342 28.0543L32.3449 33.4927L34.1556 28.0543C34.4634 19.0184 41.8242 11.7897 50.8659 11.7897C53.8862 11.7897 56.7189 12.6013 59.1645 14.0136C59.4867 11.499 60.0591 9.01599 60.8478 6.60078L62.685 1L61.8842 1.15019C54.9659 2.44138 47.872 6.52568 41.2399 4.1686C38.4552 3.18023 35.4614 2.64244 32.3449 2.64244C29.2284 2.64244 26.2346 3.18023 23.4523 4.1686C16.8178 6.52568 9.7239 2.44138 2.80559 1.15019L2.00482 1L3.84201 6.60078C4.63075 9.01599 5.20307 11.499 5.5253 14.0136Z" fill="#13728D"/>
</g>
<mask id="mask1_90_1006" style="mask-type:luminance" maskUnits="userSpaceOnUse" x="12" y="22" width="8" height="8">
<path d="M12.2488 22.168H19.7443V29.7188H12.2488V22.168Z" fill="white"/>
</mask>
<g mask="url(#mask1_90_1006)">
<mask id="mask2_90_1006" style="mask-type:luminance" maskUnits="userSpaceOnUse" x="12" y="22" width="8" height="8">
<path d="M15.9978 22.168C13.9273 22.168 12.2488 23.8589 12.2488 25.9422C12.2488 28.0279 13.9273 29.7188 15.9978 29.7188C18.0682 29.7188 19.7443 28.0279 19.7443 25.9422C19.7443 23.8589 18.0682 22.168 15.9978 22.168Z" fill="white"/>
</mask>
<g mask="url(#mask2_90_1006)">
<path d="M12.2488 22.168H19.7443V29.7188H12.2488V22.168Z" fill="#13728D"/>
</g>
</g>
<mask id="mask3_90_1006" style="mask-type:luminance" maskUnits="userSpaceOnUse" x="45" y="22" width="8" height="8">
<path d="M45.1139 22.168H52.6093V29.7188H45.1139V22.168Z" fill="white"/>
</mask>
<g mask="url(#mask3_90_1006)">
<mask id="mask4_90_1006" style="mask-type:luminance" maskUnits="userSpaceOnUse" x="45" y="22" width="8" height="8">
<path d="M48.8628 22.168C46.7923 22.168 45.1139 23.8589 45.1139 25.9422C45.1139 28.0279 46.7923 29.7188 48.8628 29.7188C50.9332 29.7188 52.6093 28.0279 52.6093 25.9422C52.6093 23.8589 50.9332 22.168 48.8628 22.168Z" fill="white"/>
</mask>
<g mask="url(#mask4_90_1006)">
<path d="M45.1139 22.168H52.6093V29.7188H45.1139V22.168Z" fill="#13728D"/>
</g>
</g>
<path d="M102.558 15.6582L94.8053 39.2241H90.1979L84.417 21.7822L78.5399 39.2241H73.894L66.1413 15.6582H70.6525L76.4623 33.5652L82.5125 15.6582H86.5235L92.4391 33.6718L98.422 15.6582H102.558Z" fill="#13728D"/>
<path d="M110.447 15.6582H114.785V35.5225H127.02V39.2241H110.447V15.6582Z" fill="#13728D"/>
<path d="M145.23 39.563C142.844 39.563 140.692 39.0446 138.775 38.003C136.856 36.9564 135.354 35.5078 134.264 33.6522C133.172 31.799 132.629 29.7278 132.629 27.4409C132.629 25.1541 133.172 23.0877 134.264 21.2394C135.354 19.3862 136.856 17.9351 138.775 16.8886C140.692 15.8421 142.844 15.3188 145.23 15.3188C147.608 15.3188 149.755 15.8421 151.674 16.8886C153.591 17.9351 155.094 19.3789 156.185 21.22C157.275 23.0563 157.821 25.1299 157.821 27.4409C157.821 29.7544 157.275 31.8305 156.185 33.6716C155.094 35.5126 153.591 36.9564 151.674 38.003C149.755 39.0446 147.608 39.563 145.23 39.563ZM145.23 35.7258C146.788 35.7258 148.187 35.3746 149.433 34.6696C150.683 33.9598 151.665 32.9715 152.376 31.7045C153.088 30.4327 153.444 29.0107 153.444 27.4409C153.444 25.8712 153.088 24.454 152.376 23.1871C151.665 21.9153 150.683 20.9269 149.433 20.2219C148.187 19.5122 146.788 19.1561 145.23 19.1561C143.664 19.1561 142.257 19.5122 141.007 20.2219C139.761 20.9269 138.785 21.9153 138.073 23.1871C137.361 24.454 137.006 25.8712 137.006 27.4409C137.006 29.0107 137.361 30.4327 138.073 31.7045C138.785 32.9715 139.761 33.9598 141.007 34.6696C142.257 35.3746 143.664 35.7258 145.23 35.7258Z" fill="#13728D"/>
<path d="M177.204 39.563C174.819 39.563 172.666 39.0446 170.75 38.003C168.831 36.9564 167.328 35.5078 166.239 33.6522C165.147 31.799 164.603 29.7278 164.603 27.4409C164.603 25.1541 165.147 23.0877 166.239 21.2394C167.328 19.3862 168.831 17.9351 170.75 16.8886C172.666 15.8421 174.819 15.3188 177.204 15.3188C179.582 15.3188 181.73 15.8421 183.649 16.8886C185.565 17.9351 187.068 19.3789 188.16 21.22C189.249 23.0563 189.795 25.1299 189.795 27.4409C189.795 29.7544 189.249 31.8305 188.16 33.6716C187.068 35.5126 185.565 36.9564 183.649 38.003C181.73 39.0446 179.582 39.563 177.204 39.563ZM177.204 35.7258C178.762 35.7258 180.162 35.3746 181.408 34.6696C182.658 33.9598 183.639 32.9715 184.351 31.7045C185.063 30.4327 185.419 29.0107 185.419 27.4409C185.419 25.8712 185.063 24.454 184.351 23.1871C183.639 21.9153 182.658 20.9269 181.408 20.2219C180.162 19.5122 178.762 19.1561 177.204 19.1561C175.639 19.1561 174.232 19.5122 172.981 20.2219C171.736 20.9269 170.759 21.9153 170.048 23.1871C169.336 24.454 168.98 25.8712 168.98 27.4409C168.98 29.0107 169.336 30.4327 170.048 31.7045C170.759 32.9715 171.736 33.9598 172.981 34.6696C174.232 35.3746 175.639 35.7258 177.204 35.7258Z" fill="#13728D"/>
</svg>
